<?xml version="1.0" encoding="ISO-8859-1" standalone="no"?>
<!DOCTYPE svg PUBLIC "-//W3C//DTD SVG 20000303 Stylable//EN"
"http://www.w3.org/TR/2000/03/WD-SVG-20000303/DTD/svg-20000303-stylable.dtd">
<svg width="8in" height="8in" viewBox="0 0 1 1" preserveAspectRatio="none">
<title>SVG drawing</title>
<desc>This was produced by version 4.1 of GNU libplot, a free library for exporting 2-D vector graphics.</desc>
<rect x="0" y="0" width="1" height="1" style="stroke:none;fill:white;"/>
<g transform="translate(-0.03125,1.1875) scale(1,-1) scale(0.0017361) " xml:space="preserve" style="stroke:black;stroke-linecap:butt;stroke-linejoin:miter;stroke-miterlimit:10.433;stroke-dasharray:none;stroke-dashoffset:0;stroke-opacity:1;fill:none;fill-rule:even-odd;fill-opacity:1;font-style:normal;font-variant:normal;font-weight:normal;font-stretch:normal;font-size-adjust:none;letter-spacing:normal;word-spacing:normal;text-anchor:start;">
<path d="M539.61,435.88 L539.57,439.85 L539.44,443.78 L539.22,447.68 L538.91,451.54 L538.51,455.37 L538.03,459.15 L537.46,462.9 L536.8,466.62 L536.05,470.3 L535.21,473.94 L534.29,477.54 L533.28,481.11 L532.18,484.64 L530.99,488.13 L529.71,491.59 L528.35,495.01 L526.9,498.4 L525.36,501.74 L523.73,505.06 L522.01,508.33 L520.21,511.57 L518.32,514.77 L516.34,517.93 L514.27,521.06 L512.11,524.15 L509.87,527.2 L507.54,530.22 L505.12,533.2 L502.61,536.15 L500.01,539.05 L497.33,541.93 L494.56,544.76 C464.52,574.8,428.23,589.81,385.68,589.81 C343.12,589.81,306.83,574.8,276.8,544.76 C246.76,514.72,231.74,478.43,231.74,435.88 C231.74,393.33,246.76,357.03,276.8,327 C306.83,296.96,343.12,281.94,385.68,281.94 C428.23,281.94,464.52,296.96,494.56,327 C524.59,357.03,539.61,393.33,539.61,435.88 Z " style="stroke:#60a31d;stroke-width:0;stroke-linecap:round;stroke-linejoin:round;fill:#60a31d;fill-rule:nonzero;"/>
<path d="M385.68,288.46 L533.1,435.88 C533.1,354.46,467.09,288.46,385.68,288.46 C304.26,288.46,238.26,354.46,238.26,435.88 C238.26,517.3,304.26,583.3,385.68,583.3 C467.09,583.3,533.1,517.3,533.1,435.88 Z " style="stroke:#63a41c;stroke-width:0;stroke-linecap:round;stroke-linejoin:round;fill:#63a41c;fill-rule:nonzero;"/>
<path d="M385.68,289.09 L532.46,435.88 C532.46,354.81,466.74,289.09,385.68,289.09 C304.61,289.09,238.89,354.81,238.89,435.88 C238.89,516.95,304.61,582.66,385.68,582.66 C466.74,582.66,532.46,516.95,532.46,435.88 Z " style="stroke:#66a61c;stroke-width:0;stroke-linecap:round;stroke-linejoin:round;fill:#66a61c;fill-rule:nonzero;"/>
<path d="M385.68,289.73 L531.83,435.88 C531.83,355.16,466.39,289.73,385.68,289.73 C304.96,289.73,239.53,355.16,239.53,435.88 C239.53,516.59,304.96,582.03,385.68,582.03 C466.39,582.03,531.83,516.59,531.83,435.88 Z " style="stroke:#69a81c;stroke-width:0;stroke-linecap:round;stroke-linejoin:round;fill:#69a81c;fill-rule:nonzero;"/>
<path d="M385.68,290.36 L531.19,435.88 C531.19,355.51,466.04,290.36,385.68,290.36 C305.31,290.36,240.16,355.51,240.16,435.88 C240.16,516.24,305.31,581.39,385.68,581.39 C466.04,581.39,531.19,516.24,531.19,435.88 Z " style="stroke:#6daa1c;stroke-width:0;stroke-linecap:round;stroke-linejoin:round;fill:#6daa1c;fill-rule:nonzero;"/>
<path d="M385.68,291 L530.55,435.88 C530.55,355.86,465.69,291,385.68,291 C305.66,291,240.8,355.86,240.8,435.88 C240.8,515.89,305.66,580.76,385.68,580.76 C465.69,580.76,530.55,515.89,530.55,435.88 Z " style="stroke:#70ac1c;stroke-width:0;stroke-linecap:round;stroke-linejoin:round;fill:#70ac1c;fill-rule:nonzero;"/>
<path d="M385.68,291.64 L529.92,435.88 C529.92,356.22,465.34,291.64,385.68,291.64 C306.01,291.64,241.43,356.22,241.43,435.88 C241.43,515.54,306.01,580.12,385.68,580.12 C465.34,580.12,529.92,515.54,529.92,435.88 Z " style="stroke:#73ae1c;stroke-width:0;stroke-linecap:round;stroke-linejoin:round;fill:#73ae1c;fill-rule:nonzero;"/>
<path d="M385.68,292.27 L529.28,435.88 C529.28,356.57,464.99,292.27,385.68,292.27 C306.36,292.27,242.07,356.57,242.07,435.88 C242.07,515.19,306.36,579.49,385.68,579.49 C464.99,579.49,529.28,515.19,529.28,435.88 Z " style="stroke:#77b01c;stroke-width:0;stroke-linecap:round;stroke-linejoin:round;fill:#77b01c;fill-rule:nonzero;"/>
<path d="M385.68,292.91 L528.65,435.88 C528.65,356.92,464.64,292.91,385.68,292.91 C306.71,292.91,242.7,356.92,242.7,435.88 C242.7,514.84,306.71,578.85,385.68,578.85 C464.64,578.85,528.65,514.84,528.65,435.88 Z " style="stroke:#78b01b;stroke-width:0;stroke-linecap:round;stroke-linejoin:round;fill:#78b01b;fill-rule:nonzero;"/>
<path d="M385.68,293.54 L528.01,435.88 C528.01,357.27,464.29,293.54,385.68,293.54 C307.07,293.54,243.34,357.27,243.34,435.88 C243.34,514.49,307.07,578.22,385.68,578.22 C464.29,578.22,528.01,514.49,528.01,435.88 Z " style="stroke:#79b11b;stroke-width:0;stroke-linecap:round;stroke-linejoin:round;fill:#79b11b;fill-rule:nonzero;"/>
<path d="M385.68,294.18 L527.38,435.88 C527.38,357.62,463.93,294.18,385.68,294.18 C307.42,294.18,243.98,357.62,243.98,435.88 C243.98,514.14,307.42,577.58,385.68,577.58 C463.93,577.58,527.38,514.14,527.38,435.88 Z " style="stroke:#7bb21b;stroke-width:0;stroke-linecap:round;stroke-linejoin:round;fill:#7bb21b;fill-rule:nonzero;"/>
<path d="M385.68,294.81 L526.74,435.88 C526.74,357.97,463.58,294.81,385.68,294.81 C307.77,294.81,244.61,357.97,244.61,435.88 C244.61,513.79,307.77,576.95,385.68,576.95 C463.58,576.95,526.74,513.79,526.74,435.88 Z " style="stroke:#7cb21b;stroke-width:0;stroke-linecap:round;stroke-linejoin:round;fill:#7cb21b;fill-rule:nonzero;"/>
<path d="M385.68,295.45 L526.11,435.88 C526.11,358.32,463.23,295.45,385.68,295.45 C308.12,295.45,245.25,358.32,245.25,435.88 C245.25,513.44,308.12,576.31,385.68,576.31 C463.23,576.31,526.11,513.44,526.11,435.88 Z " style="stroke:#7db31b;stroke-width:0;stroke-linecap:round;stroke-linejoin:round;fill:#7db31b;fill-rule:nonzero;"/>
<path d="M385.68,296.08 L525.47,435.88 C525.47,358.67,462.88,296.08,385.68,296.08 C308.47,296.08,245.88,358.67,245.88,435.88 C245.88,513.09,308.47,575.67,385.68,575.67 C462.88,575.67,525.47,513.09,525.47,435.88 Z " style="stroke:#7fb41b;stroke-width:0;stroke-linecap:round;stroke-linejoin:round;fill:#7fb41b;fill-rule:nonzero;"/>
<path d="M385.68,296.72 L524.84,435.88 C524.84,359.02,462.53,296.72,385.68,296.72 C308.82,296.72,246.52,359.02,246.52,435.88 C246.52,512.73,308.82,575.04,385.68,575.04 C462.53,575.04,524.84,512.73,524.84,435.88 Z " style="stroke:#80b51b;stroke-width:0;stroke-linecap:round;stroke-linejoin:round;fill:#80b51b;fill-rule:nonzero;"/>
<path d="M385.68,297.36 L524.2,435.88 C524.2,359.37,462.18,297.36,385.68,297.36 C309.17,297.36,247.15,359.37,247.15,435.88 C247.15,512.38,309.17,574.4,385.68,574.4 C462.18,574.4,524.2,512.38,524.2,435.88 Z " style="stroke:#81b51b;stroke-width:0;stroke-linecap:round;stroke-linejoin:round;fill:#81b51b;fill-rule:nonzero;"/>
<path d="M385.68,297.99 L523.56,435.88 C523.56,359.73,461.83,297.99,385.68,297.99 C309.52,297.99,247.79,359.73,247.79,435.88 C247.79,512.03,309.52,573.77,385.68,573.77 C461.83,573.77,523.56,512.03,523.56,435.88 Z " style="stroke:#83b61b;stroke-width:0;stroke-linecap:round;stroke-linejoin:round;fill:#83b61b;fill-rule:nonzero;"/>
<path d="M385.68,298.63 L522.93,435.88 C522.93,360.08,461.48,298.63,385.68,298.63 C309.87,298.63,248.42,360.08,248.42,435.88 C248.42,511.68,309.87,573.13,385.68,573.13 C461.48,573.13,522.93,511.68,522.93,435.88 Z " style="stroke:#84b71b;stroke-width:0;stroke-linecap:round;stroke-linejoin:round;fill:#84b71b;fill-rule:nonzero;"/>
<path d="M385.68,299.26 L522.29,435.88 C522.29,360.43,461.13,299.26,385.68,299.26 C310.22,299.26,249.06,360.43,249.06,435.88 C249.06,511.33,310.22,572.5,385.68,572.5 C461.13,572.5,522.29,511.33,522.29,435.88 Z " style="stroke:#85b81b;stroke-width:0;stroke-linecap:round;stroke-linejoin:round;fill:#85b81b;fill-rule:nonzero;"/>
<path d="M385.68,299.9 L521.66,435.88 C521.66,360.78,460.78,299.9,385.68,299.9 C310.58,299.9,249.69,360.78,249.69,435.88 C249.69,510.98,310.58,571.86,385.68,571.86 C460.78,571.86,521.66,510.98,521.66,435.88 Z " style="stroke:#87b81b;stroke-width:0;stroke-linecap:round;stroke-linejoin:round;fill:#87b81b;fill-rule:nonzero;"/>
<path d="M385.68,300.53 L521.02,435.88 C521.02,361.13,460.43,300.53,385.68,300.53 C310.93,300.53,250.33,361.13,250.33,435.88 C250.33,510.63,310.93,571.23,385.68,571.23 C460.43,571.23,521.02,510.63,521.02,435.88 Z " style="stroke:#88b91b;stroke-width:0;stroke-linecap:round;stroke-linejoin:round;fill:#88b91b;fill-rule:nonzero;"/>
<path d="M385.68,301.17 L520.39,435.88 C520.39,361.48,460.08,301.17,385.68,301.17 C311.28,301.17,250.96,361.48,250.96,435.88 C250.96,510.28,311.28,570.59,385.68,570.59 C460.08,570.59,520.39,510.28,520.39,435.88 Z " style="stroke:#89ba1b;stroke-width:0;stroke-linecap:round;stroke-linejoin:round;fill:#89ba1b;fill-rule:nonzero;"/>
<path d="M385.68,301.8 L519.75,435.88 C519.75,361.83,459.72,301.8,385.68,301.8 C311.63,301.8,251.6,361.83,251.6,435.88 C251.6,509.93,311.63,569.96,385.68,569.96 C459.72,569.96,519.75,509.93,519.75,435.88 Z " style="stroke:#8bba1b;stroke-width:0;stroke-linecap:round;stroke-linejoin:round;fill:#8bba1b;fill-rule:nonzero;"/>
<path d="M385.68,302.44 L519.12,435.88 C519.12,362.18,459.37,302.44,385.68,302.44 C311.98,302.44,252.24,362.18,252.24,435.88 C252.24,509.58,311.98,569.32,385.68,569.32 C459.37,569.32,519.12,509.58,519.12,435.88 Z " style="stroke:#8cbb1b;stroke-width:0;stroke-linecap:round;stroke-linejoin:round;fill:#8cbb1b;fill-rule:nonzero;"/>
<path d="M385.68,303.07 L518.48,435.88 C518.48,362.53,459.02,303.07,385.68,303.07 C312.33,303.07,252.87,362.53,252.87,435.88 C252.87,509.23,312.33,568.68,385.68,568.68 C459.02,568.68,518.48,509.23,518.48,435.88 Z " style="stroke:#8dbc1b;stroke-width:0;stroke-linecap:round;stroke-linejoin:round;fill:#8dbc1b;fill-rule:nonzero;"/>
<path d="M385.68,303.71 L517.85,435.88 C517.85,362.88,458.67,303.71,385.68,303.71 C312.68,303.71,253.51,362.88,253.51,435.88 C253.51,508.87,312.68,568.05,385.68,568.05 C458.67,568.05,517.85,508.87,517.85,435.88 Z " style="stroke:#8fbd1b;stroke-width:0;stroke-linecap:round;stroke-linejoin:round;fill:#8fbd1b;fill-rule:nonzero;"/>
<path d="M385.68,304.35 L517.21,435.88 C517.21,363.23,458.32,304.35,385.68,304.35 C313.03,304.35,254.14,363.23,254.14,435.88 C254.14,508.52,313.03,567.41,385.68,567.41 C458.32,567.41,517.21,508.52,517.21,435.88 Z " style="stroke:#90bd1b;stroke-width:0;stroke-linecap:round;stroke-linejoin:round;fill:#90bd1b;fill-rule:nonzero;"/>
<path d="M385.68,304.98 L516.58,435.88 C516.58,363.59,457.97,304.98,385.68,304.98 C313.38,304.98,254.78,363.59,254.78,435.88 C254.78,508.17,313.38,566.78,385.68,566.78 C457.97,566.78,516.58,508.17,516.58,435.88 Z " style="stroke:#91be1b;stroke-width:0;stroke-linecap:round;stroke-linejoin:round;fill:#91be1b;fill-rule:nonzero;"/>
<path d="M385.68,305.62 L515.94,435.88 C515.94,363.94,457.62,305.62,385.68,305.62 C313.73,305.62,255.41,363.94,255.41,435.88 C255.41,507.82,313.73,566.14,385.68,566.14 C457.62,566.14,515.94,507.82,515.94,435.88 Z " style="stroke:#93bf1b;stroke-width:0;stroke-linecap:round;stroke-linejoin:round;fill:#93bf1b;fill-rule:nonzero;"/>
<path d="M385.68,306.25 L515.3,435.88 C515.3,364.29,457.27,306.25,385.68,306.25 C314.08,306.25,256.05,364.29,256.05,435.88 C256.05,507.47,314.08,565.51,385.68,565.51 C457.27,565.51,515.3,507.47,515.3,435.88 Z " style="stroke:#94c01b;stroke-width:0;stroke-linecap:round;stroke-linejoin:round;fill:#94c01b;fill-rule:nonzero;"/>
<path d="M385.68,306.89 L514.67,435.88 C514.67,364.64,456.92,306.89,385.68,306.89 C314.44,306.89,256.68,364.64,256.68,435.88 C256.68,507.12,314.44,564.87,385.68,564.87 C456.92,564.87,514.67,507.12,514.67,435.88 Z " style="stroke:#95c01b;stroke-width:0;stroke-linecap:round;stroke-linejoin:round;fill:#95c01b;fill-rule:nonzero;"/>
<path d="M385.68,307.52 L514.03,435.88 C514.03,364.99,456.57,307.52,385.68,307.52 C314.79,307.52,257.32,364.99,257.32,435.88 C257.32,506.77,314.79,564.24,385.68,564.24 C456.57,564.24,514.03,506.77,514.03,435.88 Z " style="stroke:#97c11b;stroke-width:0;stroke-linecap:round;stroke-linejoin:round;fill:#97c11b;fill-rule:nonzero;"/>
<path d="M385.68,308.16 L513.4,435.88 C513.4,365.34,456.21,308.16,385.68,308.16 C315.14,308.16,257.95,365.34,257.95,435.88 C257.95,506.42,315.14,563.6,385.68,563.6 C456.21,563.6,513.4,506.42,513.4,435.88 Z " style="stroke:#98c21a;stroke-width:0;stroke-linecap:round;stroke-linejoin:round;fill:#98c21a;fill-rule:nonzero;"/>
<path d="M385.68,308.79 L512.76,435.88 C512.76,365.69,455.86,308.79,385.68,308.79 C315.49,308.79,258.59,365.69,258.59,435.88 C258.59,506.07,315.49,562.97,385.68,562.97 C455.86,562.97,512.76,506.07,512.76,435.88 Z " style="stroke:#99c21a;stroke-width:0;stroke-linecap:round;stroke-linejoin:round;fill:#99c21a;fill-rule:nonzero;"/>
<path d="M385.68,309.43 L512.13,435.88 C512.13,366.04,455.51,309.43,385.68,309.43 C315.84,309.43,259.23,366.04,259.23,435.88 C259.23,505.72,315.84,562.33,385.68,562.33 C455.51,562.33,512.13,505.72,512.13,435.88 Z " style="stroke:#9bc31a;stroke-width:0;stroke-linecap:round;stroke-linejoin:round;fill:#9bc31a;fill-rule:nonzero;"/>
<path d="M385.68,310.06 L511.49,435.88 C511.49,366.39,455.16,310.06,385.68,310.06 C316.19,310.06,259.86,366.39,259.86,435.88 C259.86,505.36,316.19,561.69,385.68,561.69 C455.16,561.69,511.49,505.36,511.49,435.88 Z " style="stroke:#9cc41a;stroke-width:0;stroke-linecap:round;stroke-linejoin:round;fill:#9cc41a;fill-rule:nonzero;"/>
<path d="M385.68,310.7 L510.86,435.88 C510.86,366.74,454.81,310.7,385.68,310.7 C316.54,310.7,260.5,366.74,260.5,435.88 C260.5,505.01,316.54,561.06,385.68,561.06 C454.81,561.06,510.86,505.01,510.86,435.88 Z " style="stroke:#9dc51a;stroke-width:0;stroke-linecap:round;stroke-linejoin:round;fill:#9dc51a;fill-rule:nonzero;"/>
<path d="M385.68,311.33 L510.22,435.88 C510.22,367.1,454.46,311.33,385.68,311.33 C316.89,311.33,261.13,367.1,261.13,435.88 C261.13,504.66,316.89,560.42,385.68,560.42 C454.46,560.42,510.22,504.66,510.22,435.88 Z " style="stroke:#9fc51a;stroke-width:0;stroke-linecap:round;stroke-linejoin:round;fill:#9fc51a;fill-rule:nonzero;"/>
<path d="M385.68,311.97 L509.58,435.88 C509.58,367.45,454.11,311.97,385.68,311.97 C317.24,311.97,261.77,367.45,261.77,435.88 C261.77,504.31,317.24,559.79,385.68,559.79 C454.11,559.79,509.58,504.31,509.58,435.88 Z " style="stroke:#a0c61a;stroke-width:0;stroke-linecap:round;stroke-linejoin:round;fill:#a0c61a;fill-rule:nonzero;"/>
<path d="M385.68,312.61 L508.95,435.88 C508.95,367.8,453.76,312.61,385.68,312.61 C317.59,312.61,262.4,367.8,262.4,435.88 C262.4,503.96,317.59,559.15,385.68,559.15 C453.76,559.15,508.95,503.96,508.95,435.88 Z " style="stroke:#a1c71a;stroke-width:0;stroke-linecap:round;stroke-linejoin:round;fill:#a1c71a;fill-rule:nonzero;"/>
<path d="M385.68,313.24 L508.31,435.88 C508.31,368.15,453.41,313.24,385.68,313.24 C317.95,313.24,263.04,368.15,263.04,435.88 C263.04,503.61,317.95,558.52,385.68,558.52 C453.41,558.52,508.31,503.61,508.31,435.88 Z " style="stroke:#a3c81a;stroke-width:0;stroke-linecap:round;stroke-linejoin:round;fill:#a3c81a;fill-rule:nonzero;"/>
<path d="M385.68,313.88 L507.68,435.88 C507.68,368.5,453.06,313.88,385.68,313.88 C318.3,313.88,263.67,368.5,263.67,435.88 C263.67,503.26,318.3,557.88,385.68,557.88 C453.06,557.88,507.68,503.26,507.68,435.88 Z " style="stroke:#a4c81a;stroke-width:0;stroke-linecap:round;stroke-linejoin:round;fill:#a4c81a;fill-rule:nonzero;"/>
<path d="M385.68,314.51 L507.04,435.88 C507.04,368.85,452.7,314.51,385.68,314.51 C318.65,314.51,264.31,368.85,264.31,435.88 C264.31,502.91,318.65,557.25,385.68,557.25 C452.7,557.25,507.04,502.91,507.04,435.88 Z " style="stroke:#a5c91a;stroke-width:0;stroke-linecap:round;stroke-linejoin:round;fill:#a5c91a;fill-rule:nonzero;"/>
<path d="M385.68,315.15 L506.41,435.88 C506.41,369.2,452.35,315.15,385.68,315.15 C319,315.15,264.94,369.2,264.94,435.88 C264.94,502.56,319,556.61,385.68,556.61 C452.35,556.61,506.41,502.56,506.41,435.88 Z " style="stroke:#a7ca1a;stroke-width:0;stroke-linecap:round;stroke-linejoin:round;fill:#a7ca1a;fill-rule:nonzero;"/>
<path d="M385.68,315.78 L505.77,435.88 C505.77,369.55,452,315.78,385.68,315.78 C319.35,315.78,265.58,369.55,265.58,435.88 C265.58,502.21,319.35,555.97,385.68,555.97 C452,555.97,505.77,502.21,505.77,435.88 Z " style="stroke:#a8ca1a;stroke-width:0;stroke-linecap:round;stroke-linejoin:round;fill:#a8ca1a;fill-rule:nonzero;"/>
<path d="M385.68,316.42 L505.14,435.88 C505.14,369.9,451.65,316.42,385.68,316.42 C319.7,316.42,266.21,369.9,266.21,435.88 C266.21,501.86,319.7,555.34,385.68,555.34 C451.65,555.34,505.14,501.86,505.14,435.88 Z " style="stroke:#a9cb1a;stroke-width:0;stroke-linecap:round;stroke-linejoin:round;fill:#a9cb1a;fill-rule:nonzero;"/>
<path d="M385.68,317.05 L504.5,435.88 C504.5,370.25,451.3,317.05,385.68,317.05 C320.05,317.05,266.85,370.25,266.85,435.88 C266.85,501.5,320.05,554.7,385.68,554.7 C451.3,554.7,504.5,501.5,504.5,435.88 Z " style="stroke:#abcc1a;stroke-width:0;stroke-linecap:round;stroke-linejoin:round;fill:#abcc1a;fill-rule:nonzero;"/>
<path d="M385.68,317.69 L503.87,435.88 C503.87,370.6,450.95,317.69,385.68,317.69 C320.4,317.69,267.49,370.6,267.49,435.88 C267.49,501.15,320.4,554.07,385.68,554.07 C450.95,554.07,503.87,501.15,503.87,435.88 Z " style="stroke:#accd1a;stroke-width:0;stroke-linecap:round;stroke-linejoin:round;fill:#accd1a;fill-rule:nonzero;"/>
<path d="M385.68,318.32 L503.23,435.88 C503.23,370.95,450.6,318.32,385.68,318.32 C320.75,318.32,268.12,370.95,268.12,435.88 C268.12,500.8,320.75,553.43,385.68,553.43 C450.6,553.43,503.23,500.8,503.23,435.88 Z " style="stroke:#adcd1a;stroke-width:0;stroke-linecap:round;stroke-linejoin:round;fill:#adcd1a;fill-rule:nonzero;"/>
<path d="M385.68,318.96 L502.6,435.88 C502.6,371.31,450.25,318.96,385.68,318.96 C321.1,318.96,268.76,371.31,268.76,435.88 C268.76,500.45,321.1,552.8,385.68,552.8 C450.25,552.8,502.6,500.45,502.6,435.88 Z " style="stroke:#afce1a;stroke-width:0;stroke-linecap:round;stroke-linejoin:round;fill:#afce1a;fill-rule:nonzero;"/>
<path d="M385.68,319.6 L501.96,435.88 C501.96,371.66,449.9,319.6,385.68,319.6 C321.45,319.6,269.39,371.66,269.39,435.88 C269.39,500.1,321.45,552.16,385.68,552.16 C449.9,552.16,501.96,500.1,501.96,435.88 Z " style="stroke:#b0cf1a;stroke-width:0;stroke-linecap:round;stroke-linejoin:round;fill:#b0cf1a;fill-rule:nonzero;"/>
<path d="M385.68,320.23 L501.32,435.88 C501.32,372.01,449.55,320.23,385.68,320.23 C321.8,320.23,270.03,372.01,270.03,435.88 C270.03,499.75,321.8,551.53,385.68,551.53 C449.55,551.53,501.32,499.75,501.32,435.88 Z " style="stroke:#b1d01a;stroke-width:0;stroke-linecap:round;stroke-linejoin:round;fill:#b1d01a;fill-rule:nonzero;"/>
<path d="M385.68,320.87 L500.69,435.88 C500.69,372.36,449.2,320.87,385.68,320.87 C322.16,320.87,270.66,372.36,270.66,435.88 C270.66,499.4,322.16,550.89,385.68,550.89 C449.2,550.89,500.69,499.4,500.69,435.88 Z " style="stroke:#b3d01a;stroke-width:0;stroke-linecap:round;stroke-linejoin:round;fill:#b3d01a;fill-rule:nonzero;"/>
<path d="M385.68,321.5 L500.05,435.88 C500.05,372.71,448.85,321.5,385.68,321.5 C322.51,321.5,271.3,372.71,271.3,435.88 C271.3,499.05,322.51,550.26,385.68,550.26 C448.85,550.26,500.05,499.05,500.05,435.88 Z " style="stroke:#b4d11a;stroke-width:0;stroke-linecap:round;stroke-linejoin:round;fill:#b4d11a;fill-rule:nonzero;"/>
<path d="M385.68,322.14 L499.42,435.88 C499.42,373.06,448.49,322.14,385.68,322.14 C322.86,322.14,271.93,373.06,271.93,435.88 C271.93,498.7,322.86,549.62,385.68,549.62 C448.49,549.62,499.42,498.7,499.42,435.88 Z " style="stroke:#b5d21a;stroke-width:0;stroke-linecap:round;stroke-linejoin:round;fill:#b5d21a;fill-rule:nonzero;"/>
<path d="M385.68,322.77 L498.78,435.88 C498.78,373.41,448.14,322.77,385.68,322.77 C323.21,322.77,272.57,373.41,272.57,435.88 C272.57,498.35,323.21,548.99,385.68,548.99 C448.14,548.99,498.78,498.35,498.78,435.88 Z " style="stroke:#b7d31a;stroke-width:0;stroke-linecap:round;stroke-linejoin:round;fill:#b7d31a;fill-rule:nonzero;"/>
<path d="M385.68,323.41 L498.15,435.88 C498.15,373.76,447.79,323.41,385.68,323.41 C323.56,323.41,273.2,373.76,273.2,435.88 C273.2,497.99,323.56,548.35,385.68,548.35 C447.79,548.35,498.15,497.99,498.15,435.88 Z " style="stroke:#b8d319;stroke-width:0;stroke-linecap:round;stroke-linejoin:round;fill:#b8d319;fill-rule:nonzero;"/>
<path d="M385.68,324.04 L497.51,435.88 C497.51,374.11,447.44,324.04,385.68,324.04 C323.91,324.04,273.84,374.11,273.84,435.88 C273.84,497.64,323.91,547.72,385.68,547.72 C447.44,547.72,497.51,497.64,497.51,435.88 Z " style="stroke:#b9d419;stroke-width:0;stroke-linecap:round;stroke-linejoin:round;fill:#b9d419;fill-rule:nonzero;"/>
<path d="M385.68,324.68 L496.88,435.88 C496.88,374.46,447.09,324.68,385.68,324.68 C324.26,324.68,274.48,374.46,274.48,435.88 C274.48,497.29,324.26,547.08,385.68,547.08 C447.09,547.08,496.88,497.29,496.88,435.88 Z " style="stroke:#bbd519;stroke-width:0;stroke-linecap:round;stroke-linejoin:round;fill:#bbd519;fill-rule:nonzero;"/>
<path d="M385.68,325.31 L496.24,435.88 C496.24,374.82,446.74,325.31,385.68,325.31 C324.61,325.31,275.11,374.82,275.11,435.88 C275.11,496.94,324.61,546.44,385.68,546.44 C446.74,546.44,496.24,496.94,496.24,435.88 Z " style="stroke:#bcd519;stroke-width:0;stroke-linecap:round;stroke-linejoin:round;fill:#bcd519;fill-rule:nonzero;"/>
<path d="M385.68,325.95 L495.61,435.88 C495.61,375.17,446.39,325.95,385.68,325.95 C324.96,325.95,275.75,375.17,275.75,435.88 C275.75,496.59,324.96,545.81,385.68,545.81 C446.39,545.81,495.61,496.59,495.61,435.88 Z " style="stroke:#bdd619;stroke-width:0;stroke-linecap:round;stroke-linejoin:round;fill:#bdd619;fill-rule:nonzero;"/>
<path d="M385.68,326.58 L494.97,435.88 C494.97,375.52,446.04,326.58,385.68,326.58 C325.32,326.58,276.38,375.52,276.38,435.88 C276.38,496.24,325.32,545.17,385.68,545.17 C446.04,545.17,494.97,496.24,494.97,435.88 Z " style="stroke:#bfd719;stroke-width:0;stroke-linecap:round;stroke-linejoin:round;fill:#bfd719;fill-rule:nonzero;"/>
<path d="M385.68,327.22 L494.33,435.88 C494.33,375.87,445.69,327.22,385.68,327.22 C325.67,327.22,277.02,375.87,277.02,435.88 C277.02,495.89,325.67,544.54,385.68,544.54 C445.69,544.54,494.33,495.89,494.33,435.88 Z " style="stroke:#c0d819;stroke-width:0;stroke-linecap:round;stroke-linejoin:round;fill:#c0d819;fill-rule:nonzero;"/>
<path d="M385.68,327.86 L493.7,435.88 C493.7,376.22,445.33,327.86,385.68,327.86 C326.02,327.86,277.65,376.22,277.65,435.88 C277.65,495.54,326.02,543.9,385.68,543.9 C445.33,543.9,493.7,495.54,493.7,435.88 Z " style="stroke:#c1d819;stroke-width:0;stroke-linecap:round;stroke-linejoin:round;fill:#c1d819;fill-rule:nonzero;"/>
<path d="M385.68,328.49 L493.06,435.88 C493.06,376.57,444.98,328.49,385.68,328.49 C326.37,328.49,278.29,376.57,278.29,435.88 C278.29,495.19,326.37,543.27,385.68,543.27 C444.98,543.27,493.06,495.19,493.06,435.88 Z " style="stroke:#c3d919;stroke-width:0;stroke-linecap:round;stroke-linejoin:round;fill:#c3d919;fill-rule:nonzero;"/>
<path d="M385.68,329.13 L492.43,435.88 C492.43,376.92,444.63,329.13,385.68,329.13 C326.72,329.13,278.92,376.92,278.92,435.88 C278.92,494.84,326.72,542.63,385.68,542.63 C444.63,542.63,492.43,494.84,492.43,435.88 Z " style="stroke:#c4da19;stroke-width:0;stroke-linecap:round;stroke-linejoin:round;fill:#c4da19;fill-rule:nonzero;"/>
<path d="M385.68,329.76 L491.79,435.88 C491.79,377.27,444.28,329.76,385.68,329.76 C327.07,329.76,279.56,377.27,279.56,435.88 C279.56,494.49,327.07,542,385.68,542 C444.28,542,491.79,494.49,491.79,435.88 Z " style="stroke:#c5db19;stroke-width:0;stroke-linecap:round;stroke-linejoin:round;fill:#c5db19;fill-rule:nonzero;"/>
<path d="M385.68,330.4 L491.16,435.88 C491.16,377.62,443.93,330.4,385.68,330.4 C327.42,330.4,280.2,377.62,280.2,435.88 C280.2,494.14,327.42,541.36,385.68,541.36 C443.93,541.36,491.16,494.14,491.16,435.88 Z " style="stroke:#c7db19;stroke-width:0;stroke-linecap:round;stroke-linejoin:round;fill:#c7db19;fill-rule:nonzero;"/>
<path d="M385.68,331.03 L490.52,435.88 C490.52,377.97,443.58,331.03,385.68,331.03 C327.77,331.03,280.83,377.97,280.83,435.88 C280.83,493.78,327.77,540.72,385.68,540.72 C443.58,540.72,490.52,493.78,490.52,435.88 Z " style="stroke:#c8dc19;stroke-width:0;stroke-linecap:round;stroke-linejoin:round;fill:#c8dc19;fill-rule:nonzero;"/>
<path d="M385.68,331.67 L489.89,435.88 C489.89,378.33,443.23,331.67,385.68,331.67 C328.12,331.67,281.46,378.33,281.46,435.88 C281.46,493.43,328.12,540.09,385.68,540.09 C443.23,540.09,489.89,493.43,489.89,435.88 Z " style="stroke:#c9dd19;stroke-width:0;stroke-linecap:round;stroke-linejoin:round;fill:#c9dd19;fill-rule:nonzero;"/>
<path d="M385.68,332.3 L489.25,435.88 C489.25,378.68,442.88,332.3,385.68,332.3 C328.47,332.3,282.1,378.68,282.1,435.88 C282.1,493.08,328.47,539.45,385.68,539.45 C442.88,539.45,489.25,493.08,489.25,435.88 Z " style="stroke:#cbdd19;stroke-width:0;stroke-linecap:round;stroke-linejoin:round;fill:#cbdd19;fill-rule:nonzero;"/>
<path d="M385.68,332.94 L488.62,435.88 C488.62,379.03,442.53,332.94,385.68,332.94 C328.82,332.94,282.74,379.03,282.74,435.88 C282.74,492.73,328.82,538.82,385.68,538.82 C442.53,538.82,488.62,492.73,488.62,435.88 Z " style="stroke:#ccde19;stroke-width:0;stroke-linecap:round;stroke-linejoin:round;fill:#ccde19;fill-rule:nonzero;"/>
<path d="M385.68,333.58 L487.98,435.88 C487.98,379.38,442.18,333.58,385.68,333.58 C329.17,333.58,283.37,379.38,283.37,435.88 C283.37,492.38,329.17,538.18,385.68,538.18 C442.18,538.18,487.98,492.38,487.98,435.88 Z " style="stroke:#cddf19;stroke-width:0;stroke-linecap:round;stroke-linejoin:round;fill:#cddf19;fill-rule:nonzero;"/>
<path d="M385.68,334.21 L487.35,435.88 C487.35,379.73,441.83,334.21,385.68,334.21 C329.53,334.21,284.01,379.73,284.01,435.88 C284.01,492.03,329.53,537.55,385.68,537.55 C441.83,537.55,487.35,492.03,487.35,435.88 Z " style="stroke:#cfe019;stroke-width:0;stroke-linecap:round;stroke-linejoin:round;fill:#cfe019;fill-rule:nonzero;"/>
<path d="M385.68,334.85 L486.71,435.88 C486.71,380.08,441.48,334.85,385.68,334.85 C329.88,334.85,284.64,380.08,284.64,435.88 C284.64,491.68,329.88,536.91,385.68,536.91 C441.48,536.91,486.71,491.68,486.71,435.88 Z " style="stroke:#d0e019;stroke-width:0;stroke-linecap:round;stroke-linejoin:round;fill:#d0e019;fill-rule:nonzero;"/>
<path d="M385.68,335.48 L486.07,435.88 C486.07,380.43,441.12,335.48,385.68,335.48 C330.23,335.48,285.28,380.43,285.28,435.88 C285.28,491.33,330.23,536.28,385.68,536.28 C441.12,536.28,486.07,491.33,486.07,435.88 Z " style="stroke:#d1e119;stroke-width:0;stroke-linecap:round;stroke-linejoin:round;fill:#d1e119;fill-rule:nonzero;"/>
<path d="M385.68,336.12 L485.44,435.88 C485.44,380.78,440.77,336.12,385.68,336.12 C330.58,336.12,285.91,380.78,285.91,435.88 C285.91,490.98,330.58,535.64,385.68,535.64 C440.77,535.64,485.44,490.98,485.44,435.88 Z " style="stroke:#d3e219;stroke-width:0;stroke-linecap:round;stroke-linejoin:round;fill:#d3e219;fill-rule:nonzero;"/>
<path d="M385.68,336.75 L484.8,435.88 C484.8,381.13,440.42,336.75,385.68,336.75 C330.93,336.75,286.55,381.13,286.55,435.88 C286.55,490.62,330.93,535.01,385.68,535.01 C440.42,535.01,484.8,490.62,484.8,435.88 Z " style="stroke:#d4e319;stroke-width:0;stroke-linecap:round;stroke-linejoin:round;fill:#d4e319;fill-rule:nonzero;"/>
<path d="M385.68,337.39 L484.17,435.88 C484.17,381.48,440.07,337.39,385.68,337.39 C331.28,337.39,287.18,381.48,287.18,435.88 C287.18,490.27,331.28,534.37,385.68,534.37 C440.07,534.37,484.17,490.27,484.17,435.88 Z " style="stroke:#d5e319;stroke-width:0;stroke-linecap:round;stroke-linejoin:round;fill:#d5e319;fill-rule:nonzero;"/>
<path d="M385.68,338.02 L483.53,435.88 C483.53,381.83,439.72,338.02,385.68,338.02 C331.63,338.02,287.82,381.83,287.82,435.88 C287.82,489.92,331.63,533.73,385.68,533.73 C439.72,533.73,483.53,489.92,483.53,435.88 Z " style="stroke:#d7e419;stroke-width:0;stroke-linecap:round;stroke-linejoin:round;fill:#d7e419;fill-rule:nonzero;"/>
<path d="M385.68,338.66 L482.9,435.88 C482.9,382.18,439.37,338.66,385.68,338.66 C331.98,338.66,288.45,382.18,288.45,435.88 C288.45,489.57,331.98,533.1,385.68,533.1 C439.37,533.1,482.9,489.57,482.9,435.88 Z " style="stroke:#d8e518;stroke-width:0;stroke-linecap:round;stroke-linejoin:round;fill:#d8e518;fill-rule:nonzero;"/>
<path d="M385.68,339.29 L482.26,435.88 C482.26,382.54,439.02,339.29,385.68,339.29 C332.33,339.29,289.09,382.54,289.09,435.88 C289.09,489.22,332.33,532.46,385.68,532.46 C439.02,532.46,482.26,489.22,482.26,435.88 Z " style="stroke:#d9e518;stroke-width:0;stroke-linecap:round;stroke-linejoin:round;fill:#d9e518;fill-rule:nonzero;"/>
<path d="M385.68,339.93 L481.63,435.88 C481.63,382.89,438.67,339.93,385.68,339.93 C332.68,339.93,289.73,382.89,289.73,435.88 C289.73,488.87,332.68,531.83,385.68,531.83 C438.67,531.83,481.63,488.87,481.63,435.88 Z " style="stroke:#dbe618;stroke-width:0;stroke-linecap:round;stroke-linejoin:round;fill:#dbe618;fill-rule:nonzero;"/>
<path d="M385.68,340.56 L480.99,435.88 C480.99,383.24,438.32,340.56,385.68,340.56 C333.04,340.56,290.36,383.24,290.36,435.88 C290.36,488.52,333.04,531.19,385.68,531.19 C438.32,531.19,480.99,488.52,480.99,435.88 Z " style="stroke:#dce718;stroke-width:0;stroke-linecap:round;stroke-linejoin:round;fill:#dce718;fill-rule:nonzero;"/>
<path d="M385.68,341.2 L480.36,435.88 C480.36,383.59,437.97,341.2,385.68,341.2 C333.39,341.2,291,383.59,291,435.88 C291,488.17,333.39,530.56,385.68,530.56 C437.97,530.56,480.36,488.17,480.36,435.88 Z " style="stroke:#dde818;stroke-width:0;stroke-linecap:round;stroke-linejoin:round;fill:#dde818;fill-rule:nonzero;"/>
<path d="M385.68,341.83 L479.72,435.88 C479.72,383.94,437.61,341.83,385.68,341.83 C333.74,341.83,291.63,383.94,291.63,435.88 C291.63,487.82,333.74,529.92,385.68,529.92 C437.61,529.92,479.72,487.82,479.72,435.88 Z " style="stroke:#dfe818;stroke-width:0;stroke-linecap:round;stroke-linejoin:round;fill:#dfe818;fill-rule:nonzero;"/>
<path d="M385.68,342.47 L479.08,435.88 C479.08,384.29,437.26,342.47,385.68,342.47 C334.09,342.47,292.27,384.29,292.27,435.88 C292.27,487.47,334.09,529.29,385.68,529.29 C437.26,529.29,479.08,487.47,479.08,435.88 Z " style="stroke:#e0e918;stroke-width:0;stroke-linecap:round;stroke-linejoin:round;fill:#e0e918;fill-rule:nonzero;"/>
<path d="M385.68,343.11 L478.45,435.88 C478.45,384.64,436.91,343.11,385.68,343.11 C334.44,343.11,292.9,384.64,292.9,435.88 C292.9,487.12,334.44,528.65,385.68,528.65 C436.91,528.65,478.45,487.12,478.45,435.88 Z " style="stroke:#e1ea18;stroke-width:0;stroke-linecap:round;stroke-linejoin:round;fill:#e1ea18;fill-rule:nonzero;"/>
<path d="M385.68,343.74 L477.81,435.88 C477.81,384.99,436.56,343.74,385.68,343.74 C334.79,343.74,293.54,384.99,293.54,435.88 C293.54,486.77,334.79,528.02,385.68,528.02 C436.56,528.02,477.81,486.77,477.81,435.88 Z " style="stroke:#e3eb18;stroke-width:0;stroke-linecap:round;stroke-linejoin:round;fill:#e3eb18;fill-rule:nonzero;"/>
<path d="M385.68,344.38 L477.18,435.88 C477.18,385.34,436.21,344.38,385.68,344.38 C335.14,344.38,294.17,385.34,294.17,435.88 C294.17,486.41,335.14,527.38,385.68,527.38 C436.21,527.38,477.18,486.41,477.18,435.88 Z " style="stroke:#e4eb18;stroke-width:0;stroke-linecap:round;stroke-linejoin:round;fill:#e4eb18;fill-rule:nonzero;"/>
<path d="M385.68,345.01 L476.54,435.88 C476.54,385.7,435.86,345.01,385.68,345.01 C335.49,345.01,294.81,385.7,294.81,435.88 C294.81,486.06,335.49,526.74,385.68,526.74 C435.86,526.74,476.54,486.06,476.54,435.88 Z " style="stroke:#e5ec18;stroke-width:0;stroke-linecap:round;stroke-linejoin:round;fill:#e5ec18;fill-rule:nonzero;"/>
<path d="M385.68,345.65 L475.91,435.88 C475.91,386.05,435.51,345.65,385.68,345.65 C335.84,345.65,295.45,386.05,295.45,435.88 C295.45,485.71,335.84,526.11,385.68,526.11 C435.51,526.11,475.91,485.71,475.91,435.88 Z " style="stroke:#e7ed18;stroke-width:0;stroke-linecap:round;stroke-linejoin:round;fill:#e7ed18;fill-rule:nonzero;"/>
<path d="M385.68,346.28 L475.27,435.88 C475.27,386.4,435.16,346.28,385.68,346.28 C336.19,346.28,296.08,386.4,296.08,435.88 C296.08,485.36,336.19,525.47,385.68,525.47 C435.16,525.47,475.27,485.36,475.27,435.88 Z " style="stroke:#e8ed18;stroke-width:0;stroke-linecap:round;stroke-linejoin:round;fill:#e8ed18;fill-rule:nonzero;"/>
<path d="M385.68,346.92 L474.64,435.88 C474.64,386.75,434.81,346.92,385.68,346.92 C336.55,346.92,296.72,386.75,296.72,435.88 C296.72,485.01,336.55,524.84,385.68,524.84 C434.81,524.84,474.64,485.01,474.64,435.88 Z " style="stroke:#e9ee18;stroke-width:0;stroke-linecap:round;stroke-linejoin:round;fill:#e9ee18;fill-rule:nonzero;"/>
<path d="M385.68,347.55 L474,435.88 C474,387.1,434.46,347.55,385.68,347.55 C336.9,347.55,297.35,387.1,297.35,435.88 C297.35,484.66,336.9,524.2,385.68,524.2 C434.46,524.2,474,484.66,474,435.88 Z " style="stroke:#ebef18;stroke-width:0;stroke-linecap:round;stroke-linejoin:round;fill:#ebef18;fill-rule:nonzero;"/>
<path d="M385.68,348.19 L473.36,435.88 C473.36,387.45,434.11,348.19,385.68,348.19 C337.25,348.19,297.99,387.45,297.99,435.88 C297.99,484.31,337.25,523.57,385.68,523.57 C434.11,523.57,473.36,484.31,473.36,435.88 Z " style="stroke:#ecf018;stroke-width:0;stroke-linecap:round;stroke-linejoin:round;fill:#ecf018;fill-rule:nonzero;"/>
<path d="M385.68,348.83 L472.73,435.88 C472.73,387.8,433.76,348.83,385.68,348.83 C337.6,348.83,298.62,387.8,298.62,435.88 C298.62,483.96,337.6,522.93,385.68,522.93 C433.76,522.93,472.73,483.96,472.73,435.88 Z " style="stroke:#edf018;stroke-width:0;stroke-linecap:round;stroke-linejoin:round;fill:#edf018;fill-rule:nonzero;"/>
<path d="M385.68,349.46 L472.09,435.88 C472.09,388.15,433.4,349.46,385.68,349.46 C337.95,349.46,299.26,388.15,299.26,435.88 C299.26,483.61,337.95,522.3,385.68,522.3 C433.4,522.3,472.09,483.61,472.09,435.88 Z " style="stroke:#eff118;stroke-width:0;stroke-linecap:round;stroke-linejoin:round;fill:#eff118;fill-rule:nonzero;"/>
<path d="M385.68,350.1 L471.46,435.88 C471.46,388.5,433.05,350.1,385.68,350.1 C338.3,350.1,299.89,388.5,299.89,435.88 C299.89,483.26,338.3,521.66,385.68,521.66 C433.05,521.66,471.46,483.26,471.46,435.88 Z " style="stroke:#f0f218;stroke-width:0;stroke-linecap:round;stroke-linejoin:round;fill:#f0f218;fill-rule:nonzero;"/>
<path d="M385.68,350.73 L470.82,435.88 C470.82,388.85,432.7,350.73,385.68,350.73 C338.65,350.73,300.53,388.85,300.53,435.88 C300.53,482.9,338.65,521.03,385.68,521.03 C432.7,521.03,470.82,482.9,470.82,435.88 Z " style="stroke:#f1f318;stroke-width:0;stroke-linecap:round;stroke-linejoin:round;fill:#f1f318;fill-rule:nonzero;"/>
<path d="M385.68,351.37 L470.19,435.88 C470.19,389.2,432.35,351.37,385.68,351.37 C339,351.37,301.16,389.2,301.16,435.88 C301.16,482.55,339,520.39,385.68,520.39 C432.35,520.39,470.19,482.55,470.19,435.88 Z " style="stroke:#f3f318;stroke-width:0;stroke-linecap:round;stroke-linejoin:round;fill:#f3f318;fill-rule:nonzero;"/>
<path d="M385.68,352 L469.55,435.88 C469.55,389.55,432,352,385.68,352 C339.35,352,301.8,389.55,301.8,435.88 C301.8,482.2,339.35,519.76,385.68,519.76 C432,519.76,469.55,482.2,469.55,435.88 Z " style="stroke:#f4f418;stroke-width:0;stroke-linecap:round;stroke-linejoin:round;fill:#f4f418;fill-rule:nonzero;"/>
<path d="M385.68,352.64 L468.92,435.88 C468.92,389.91,431.65,352.64,385.68,352.64 C339.7,352.64,302.43,389.91,302.43,435.88 C302.43,481.85,339.7,519.12,385.68,519.12 C431.65,519.12,468.92,481.85,468.92,435.88 Z " style="stroke:#f5f518;stroke-width:0;stroke-linecap:round;stroke-linejoin:round;fill:#f5f518;fill-rule:nonzero;"/>
<path d="M385.68,353.27 L468.28,435.88 C468.28,390.26,431.3,353.27,385.68,353.27 C340.05,353.27,303.07,390.26,303.07,435.88 C303.07,481.5,340.05,518.48,385.68,518.48 C431.3,518.48,468.28,481.5,468.28,435.88 Z " style="stroke:#f7f618;stroke-width:0;stroke-linecap:round;stroke-linejoin:round;fill:#f7f618;fill-rule:nonzero;"/>
<path d="M494.56,544.76 L491.72,547.53 L488.85,550.22 L485.94,552.81 L483,555.32 L480.02,557.74 L477,560.07 L473.95,562.32 L470.86,564.47 L467.73,566.54 L464.56,568.52 L461.36,570.41 L458.13,572.21 L454.85,573.93 L451.54,575.56 L448.19,577.1 L444.81,578.55 L441.39,579.91 L437.93,581.19 L434.44,582.38 L430.91,583.48 L427.34,584.49 L423.73,585.41 L420.09,586.25 L416.42,587 L412.7,587.66 L408.95,588.23 L405.16,588.71 L401.34,589.11 L397.48,589.42 L393.58,589.64 L389.65,589.77 L385.68,589.81 C343.12,589.81,306.83,574.8,276.8,544.76 C246.76,514.72,231.74,478.43,231.74,435.88 C231.74,393.33,246.76,357.03,276.8,327 C306.83,296.96,343.12,281.94,385.68,281.94 C428.23,281.94,464.52,296.96,494.56,327 C524.59,357.03,539.61,393.33,539.61,435.88 C539.61,478.43,524.59,514.72,494.56,544.76 Z " style="stroke-width:14.601;stroke-linecap:round;stroke-linejoin:round;"/>
<path d="M389.78,518.69 V519.08 L386.27,519.47 H385.49 V518.69 C381.59,496.85,374.57,478.9,364.42,464.46 H364.03 L364.81,464.08 C369.89,461.34,374.96,459.78,380.81,459.39 L386.27,459 H387.05 L393.29,459.39 C399.54,460.56,405.39,462.52,410.46,465.64 C400.32,479.68,393.29,497.24,389.78,518.69 Z " style="stroke:#940000;stroke-width:0;stroke-linecap:round;stroke-linejoin:round;fill:#940000;fill-rule:nonzero;"/>
<path d="M385.49,518.69 L383.15,519.47 C374.18,519.08,366.38,515.96,359.74,510.89 C352.33,505.04,348.82,498.02,348.82,489.43 C348.82,480.46,352.33,473.44,359.74,467.59 L364.42,464.47 C374.57,478.9,381.59,496.85,385.49,518.69 Z " style="stroke:#f7f618;stroke-width:0;stroke-linecap:round;stroke-linejoin:round;fill:#f7f618;fill-rule:nonzero;"/>
<path d="M414.36,510.89 L413.1,511.74 L411.8,512.55 L410.46,513.32 L409.09,514.03 L407.69,514.7 L406.24,515.31 L404.76,515.88 L403.24,516.4 L401.69,516.87 L400.1,517.29 L398.47,517.65 L396.8,517.97 L395.1,518.23 L393.37,518.44 L391.59,518.59 L389.78,518.69 C393.29,497.24,400.32,479.68,410.46,465.64 L414.36,467.98 C421.77,473.83,425.67,481.24,425.67,489.43 C425.67,497.63,421.77,505.04,414.36,510.89 Z " style="stroke:#f7f618;stroke-width:0;stroke-linecap:round;stroke-linejoin:round;fill:#f7f618;fill-rule:nonzero;"/>
<path d="M410.85,465.25 L410.46,465.64 C405.39,462.52,399.54,460.56,393.29,459.39 C399.54,460.17,405.39,462.12,410.85,465.24 Z " style="stroke:red;stroke-width:0;stroke-linecap:round;stroke-linejoin:round;fill:red;fill-rule:nonzero;"/>
<polygon points="402.66,225.71 365.98,225.71 367.55,188.65 401.1,188.65 " style="stroke:red;stroke-width:0;stroke-linejoin:round;fill:red;fill-rule:nonzero;"/>
<polygon points="370.28,153.15 372.62,121.15 396.41,120.76 398.75,153.15 370.27,153.15 " style="stroke:red;stroke-width:0;stroke-linejoin:round;fill:red;fill-rule:nonzero;"/>
<polygon points="398.76,153.15 399.18,157.53 399.56,161.93 399.91,166.33 400.22,170.75 400.49,175.18 400.73,179.64 400.93,184.13 401.1,188.65 367.54,188.65 370.27,153.15 398.75,153.15 " style="stroke:red;stroke-width:0;stroke-linejoin:round;fill:red;fill-rule:nonzero;"/>
<polygon points="396.41,120.76 372.62,121.15 374.96,90.725 394.46,90.335 " style="stroke:red;stroke-width:0;stroke-linejoin:round;fill:red;fill-rule:nonzero;"/>
<polygon points="376.91,58.345 392.12,57.955 394.46,90.335 374.96,90.725 376.91,58.345 " style="stroke:red;stroke-width:0;stroke-linejoin:round;fill:red;fill-rule:nonzero;"/>
<path d="M392.12,57.955 L376.91,58.345 L380.42,10.359 C382.76,6.0681,385.49,6.0681,388.22,10.359 L392.12,57.955 Z " style="stroke:red;stroke-width:0;stroke-linecap:round;stroke-linejoin:round;fill:red;fill-rule:nonzero;"/>
<path d="M401.49,304.12 H400.71 L400.32,303.34 C396.02,296.71,392.51,292.42,389.39,290.47 C382.76,286.96,375.74,290.47,369.11,300.61 H367.16 L365.98,265.5 H401.88 H403.05 L401.49,304.12 Z " style="stroke:red;stroke-width:0;stroke-linecap:round;stroke-linejoin:round;fill:red;fill-rule:nonzero;"/>
<polygon points="403.05,263.94 403.05,265.5 401.88,265.5 403.05,263.55 " style="stroke:red;stroke-width:0;stroke-linejoin:round;fill:red;fill-rule:nonzero;"/>
<path d="M403.05,263.55 L401.88,265.5 H365.98 C365.6,265.11,365.6,264.33,365.98,263.94 C365.6,251.07,365.6,238.19,365.98,225.71 H402.66 Z " style="stroke:red;stroke-width:0;stroke-linecap:round;stroke-linejoin:round;fill:red;fill-rule:nonzero;"/>
<path d="M364.81,464.08 L364.03,464.46 C355.84,456.27,351.16,446.91,350.38,436.77 L347.65,405.95 L347.26,407.12 C346.09,398.92,345.7,392.29,346.09,387.61 L346.48,386.05 L348.43,348.99 L351.16,348.6 L365.59,308.42 L367.15,304.9 L369.11,300.61 C375.74,290.47,382.76,286.96,389.39,290.47 C392.51,292.42,396.02,296.71,400.32,303.34 L400.7,304.12 C401.09,304.51,401.09,305.3,401.48,305.68 C401.88,306.08,401.88,306.08,401.88,306.08 C401.88,306.46,401.88,306.46,402.26,306.86 C406.56,315.05,412.41,327.53,419.43,344.31 L420.21,347.04 L426.06,384.49 C427.23,389.95,427.23,397.36,425.67,406.34 L425.28,404 V434.82 C424.11,448.47,419.43,458.61,410.85,465.24 C405.39,462.12,399.53,460.17,393.29,459.39 L387.05,459 H386.27 L380.81,459.39 C374.96,459.78,369.89,461.34,364.81,464.08 Z " style="stroke:red;stroke-width:0;stroke-linecap:round;stroke-linejoin:round;fill:red;fill-rule:nonzero;"/>
<path d="M364.03,464.46 H364.42 C374.57,478.9,381.59,496.85,385.49,518.69 V519.47 " style="stroke-width:7.8025;stroke-linecap:round;stroke-linejoin:round;"/>
<polyline points="389.78,519.08 386.27,519.47 385.49,519.47 " style="stroke-width:7.8025;stroke-linecap:round;stroke-linejoin:round;"/>
<path d="M385.49,519.47 H383.15 C374.18,519.08,366.38,515.96,359.74,510.89 C352.33,505.04,348.82,498.02,348.82,489.43 C348.82,480.46,352.33,473.44,359.74,467.59 L364.03,464.47 " style="stroke-width:7.8025;stroke-linecap:round;stroke-linejoin:round;"/>
<path d="M410.46,465.64 L414.36,467.98 C421.77,473.83,425.67,481.24,425.67,489.43 C425.67,497.63,421.77,505.04,414.36,510.89 C407.73,515.57,399.54,518.3,389.78,518.69 " style="stroke-width:7.8025;stroke-linecap:round;stroke-linejoin:round;"/>
<path d="M385.49,519.47 L387.44,561.61 C388.22,537.42,389,523.37,389.78,519.08 " style="stroke-width:7.8025;stroke-linecap:round;stroke-linejoin:round;"/>
<line x1="410.46" y1="465.64" x2="410.85" y2="465.25" style="stroke-width:7.8025;stroke-linecap:round;"/>
<path d="M410.85,465.25 L409.82,464.67 L408.78,464.13 L407.74,463.61 L406.68,463.12 L405.61,462.66 L404.54,462.23 L403.46,461.82 L402.36,461.44 L401.26,461.09 L400.15,460.77 L399.03,460.47 L397.9,460.2 L396.76,459.96 L395.62,459.74 L394.46,459.55 L393.29,459.39 L387.05,459 H386.27 L380.81,459.39 C374.96,459.78,369.89,461.34,364.81,464.08 " style="stroke-width:7.8025;stroke-linecap:round;stroke-linejoin:round;"/>
<path d="M410.85,465.25 C419.43,458.61,424.11,448.47,425.28,434.82 " style="stroke-width:7.8025;stroke-linecap:round;stroke-linejoin:round;"/>
<line x1="425.67" y1="406.34" x2="425.28" y2="404" style="stroke-width:7.8025;stroke-linecap:round;"/>
<path d="M426.06,384.49 C427.23,389.95,427.23,397.36,425.67,406.34 " style="stroke-width:7.8025;stroke-linecap:round;stroke-linejoin:round;"/>
<polyline points="401.88,265.5 403.05,265.5 401.49,304.12 401.49,305.68 " style="stroke-width:7.8025;stroke-linecap:round;stroke-linejoin:round;"/>
<path d="M389.39,290.47 L389.69,290.66 L389.98,290.86 L390.28,291.08 L390.58,291.31 L390.89,291.55 L391.19,291.81 L391.5,292.09 L391.81,292.37 L392.13,292.67 L392.44,292.98 L392.76,293.31 L393.09,293.65 L393.41,294.01 L393.74,294.37 L394.08,294.76 L394.41,295.15 L394.75,295.56 L395.1,295.98 L395.45,296.42 L395.8,296.87 L396.15,297.33 L396.51,297.81 L396.87,298.3 L397.24,298.81 L397.61,299.33 L397.98,299.86 L398.36,300.41 L398.74,300.97 L399.13,301.54 L399.52,302.13 L399.91,302.73 L400.32,303.34 L400.7,304.12 C401.1,304.51,401.1,305.29,401.48,305.68 " style="stroke-width:7.8025;stroke-linecap:round;stroke-linejoin:round;"/>
<path d="M401.49,305.68 L401.5,305.7 L401.52,305.72 L401.54,305.74 L401.55,305.75 L401.57,305.77 L401.59,305.78 L401.6,305.8 L401.61,305.81 L401.63,305.83 L401.64,305.84 L401.65,305.85 L401.67,305.86 L401.68,305.88 L401.69,305.89 L401.7,305.9 L401.71,305.91 L401.72,305.92 L401.73,305.93 L401.74,305.94 L401.75,305.95 L401.76,305.96 L401.77,305.96 L401.77,305.97 L401.78,305.98 L401.79,305.99 L401.79,305.99 L401.8,306 L401.81,306 L401.81,306.01 L401.82,306.02 L401.82,306.02 L401.83,306.03 L401.83,306.03 L401.84,306.04 L401.85,306.05 L401.85,306.05 L401.86,306.06 L401.86,306.06 L401.87,306.07 L401.87,306.07 L401.87,306.07 L401.87,306.07 L401.87,306.07 L401.87,306.07 L401.87,306.07 L401.88,306.07 C401.88,306.46,401.88,306.46,402.27,306.85 C406.56,315.05,412.41,327.53,419.43,344.31 " style="stroke-width:7.8025;stroke-linecap:round;stroke-linejoin:round;"/>
<line x1="403.05" y1="263.55" x2="401.88" y2="265.5" style="stroke-width:7.8025;stroke-linecap:round;"/>
<line x1="403.05" y1="263.94" x2="403.05" y2="263.55" style="stroke-width:7.8025;stroke-linecap:round;"/>
<polyline points="401.88,265.5 365.98,265.5 367.15,300.61 367.15,304.9 " style="stroke-width:7.8025;stroke-linecap:round;stroke-linejoin:round;"/>
<path d="M365.59,308.42 L367.15,304.9 L369.11,300.61 C375.74,290.47,382.76,286.96,389.39,290.47 " style="stroke-width:7.8025;stroke-linecap:round;stroke-linejoin:round;"/>
<path d="M365.98,263.94 C365.59,251.07,365.59,238.19,365.98,225.71 " style="stroke-width:7.8025;stroke-linecap:round;stroke-linejoin:round;"/>
<line x1="402.66" y1="225.71" x2="365.98" y2="225.71" style="stroke-width:7.8025;stroke-linecap:round;"/>
<line x1="403.05" y1="263.55" x2="402.66" y2="225.71" style="stroke-width:7.8025;stroke-linecap:round;"/>
<line x1="370.28" y1="153.15" x2="372.62" y2="121.15" style="stroke-width:7.8025;stroke-linecap:round;"/>
<line x1="398.76" y1="153.15" x2="396.41" y2="120.76" style="stroke-width:7.8025;stroke-linecap:round;"/>
<path d="M401.1,188.65 C400.71,176.55,399.92,164.85,398.76,153.15 " style="stroke-width:7.8025;stroke-linecap:round;stroke-linejoin:round;"/>
<line x1="398.76" y1="153.15" x2="370.28" y2="153.15" style="stroke-width:7.8025;stroke-linecap:round;"/>
<line x1="396.41" y1="120.76" x2="372.62" y2="121.15" style="stroke-width:7.8025;stroke-linecap:round;"/>
<line x1="367.55" y1="188.65" x2="370.27" y2="153.15" style="stroke-width:7.8025;stroke-linecap:round;"/>
<line x1="401.1" y1="188.65" x2="367.55" y2="188.65" style="stroke-width:7.8025;stroke-linecap:round;"/>
<line x1="402.66" y1="225.71" x2="401.1" y2="188.65" style="stroke-width:7.8025;stroke-linecap:round;"/>
<line x1="365.98" y1="225.71" x2="367.54" y2="188.65" style="stroke-width:7.8025;stroke-linecap:round;"/>
<line x1="392.12" y1="57.955" x2="376.91" y2="58.345" style="stroke-width:7.8025;stroke-linecap:round;"/>
<line x1="394.46" y1="90.335" x2="392.12" y2="57.955" style="stroke-width:7.8025;stroke-linecap:round;"/>
<line x1="394.46" y1="90.335" x2="374.96" y2="90.725" style="stroke-width:7.8025;stroke-linecap:round;"/>
<line x1="374.96" y1="90.725" x2="376.91" y2="58.345" style="stroke-width:7.8025;stroke-linecap:round;"/>
<path d="M376.91,58.345 L380.42,10.36 C381.98,6.4585,383.15,4.5078,383.93,4.5078 C385.1,4.5078,386.27,6.4583,388.22,10.36 L392.12,57.955 " style="stroke-width:7.8025;stroke-linecap:round;stroke-linejoin:round;"/>
<line x1="372.62" y1="121.15" x2="374.96" y2="90.725" style="stroke-width:7.8025;stroke-linecap:round;"/>
<line x1="396.41" y1="120.76" x2="394.46" y2="90.335" style="stroke-width:7.8025;stroke-linecap:round;"/>
<polyline points="347.26,407.12 347.05,405.6 346.86,404.12 346.68,402.68 346.53,401.27 346.39,399.91 346.27,398.58 346.17,397.29 346.09,396.05 346.02,394.84 345.98,393.68 345.95,392.56 345.94,391.48 345.95,390.45 345.98,389.46 346.02,388.51 346.09,387.61 346.48,386.05 " style="stroke-width:7.8025;stroke-linecap:round;stroke-linejoin:round;"/>
<path d="M350.38,436.77 C351.16,446.91,355.84,456.27,364.03,464.46 " style="stroke-width:7.8025;stroke-linecap:round;stroke-linejoin:round;"/>
<line x1="365.59" y1="308.42" x2="351.16" y2="348.6" style="stroke-width:7.8025;stroke-linecap:round;"/>
<path d="M389.78,518.69 C393.29,497.24,400.32,479.68,410.46,465.64 " style="stroke-width:7.8025;stroke-linecap:round;stroke-linejoin:round;"/>
<line x1="389.78" y1="519.08" x2="389.78" y2="518.69" style="stroke-width:7.8025;stroke-linecap:round;"/>
<path d="M179.14,524.54 L177.04,525.24 L174.99,525.89 L172.97,526.48 L171.01,527.02 L169.08,527.51 L167.19,527.94 L165.34,528.31 L163.53,528.63 L161.76,528.9 L160.02,529.11 L158.32,529.26 L156.65,529.37 L155.01,529.41 L153.4,529.4 L151.82,529.34 L150.27,529.22 C134.27,527.66,133.88,515.56,149.1,492.55 C165.09,467.97,184.99,448.85,208.4,435.98 C224,427.01,243.12,420.37,265.36,416.08 C283.69,412.57,308.27,410.23,338.31,409.84 C369.52,409.45,383.17,411.79,379.27,416.08 C377.32,418.81,371.86,422.33,363.28,427.4 C358.21,430.13,323.1,448.85,257.94,483.57 C230.24,498.4,203.72,512.05,179.14,524.54 Z " style="stroke:white;stroke-width:0;stroke-linecap:round;stroke-linejoin:round;fill:white;fill-rule:nonzero;"/>
<path d="M179.14,524.54 L188.44,519.8 L197.93,514.95 L207.57,510 L217.37,504.93 L227.32,499.76 L237.4,494.47 L247.61,489.08 L257.94,483.57 C323.09,448.85,358.21,430.13,363.28,427.4 C371.86,422.33,377.32,418.81,379.27,416.08 C383.17,411.79,369.52,409.45,338.31,409.84 C308.27,410.23,283.69,412.57,265.36,416.08 C243.12,420.37,224,427.01,208.4,435.98 C184.99,448.85,165.09,467.97,149.1,492.55 C133.88,515.56,134.27,527.66,150.27,529.22 C158.46,530,167.82,528.44,179.14,524.54 Z " style="stroke-width:7.8025;stroke-linecap:round;stroke-linejoin:round;"/>
<path d="M618.85,528.85 L617.32,528.97 L615.75,529.04 L614.15,529.05 L612.5,529 L610.82,528.9 L609.11,528.74 L607.36,528.52 L605.58,528.24 L603.77,527.91 L601.92,527.52 L600.04,527.07 L598.13,526.57 L596.19,526 L594.22,525.39 L592.22,524.71 L590.19,523.98 C565.16,511.8,538.91,497.99,511.05,482.97 C445.64,448.45,410.52,429.77,405.27,426.93 C396.79,422.06,391.14,418.4,389.12,415.56 C385.48,411.1,399.21,409.07,430.7,409.47 C460.99,409.88,485.21,411.91,503.78,415.56 C525.99,420.03,545.37,426.93,561.12,435.46 C584.13,448.45,603.92,467.13,620.47,491.9 C635.41,515.04,635.01,527.63,618.85,528.85 Z " style="stroke:white;stroke-width:0;stroke-linecap:round;stroke-linejoin:round;fill:white;fill-rule:nonzero;"/>
<path d="M590.19,523.98 L580.74,519.33 L571.18,514.54 L561.49,509.61 L551.68,504.54 L541.73,499.33 L531.65,494 L521.42,488.54 L511.05,482.97 C445.64,448.45,410.52,429.77,405.27,426.93 C396.79,422.06,391.14,418.4,389.12,415.56 C385.48,411.1,399.21,409.07,430.7,409.47 C460.99,409.88,485.21,411.91,503.78,415.56 C525.99,420.03,545.37,426.93,561.12,435.46 C584.13,448.45,603.92,467.13,620.47,491.9 C635.41,515.04,635.01,527.63,618.85,528.85 C610.78,529.66,601.09,528.04,590.19,523.98 Z " style="stroke-width:8.0751;stroke-linecap:round;stroke-linejoin:round;"/>
<path d="M341.28,344.23 L341.62,344.43 L341.96,344.62 L342.67,345.01 L343.38,345.39 L344.1,345.78 L344.83,346.16 L345.54,346.55 L346.25,346.93 L346.59,347.13 L346.93,347.32 C360.29,354.77,369.03,360.42,372.88,364.53 C378.28,370.44,380.85,374.81,380.33,377.9 L377.77,381.24 C345.9,382.01,311.73,382.52,275.5,382.26 C244.92,382.01,210.74,380.46,172.97,377.38 C161.92,376.61,148.82,374.3,133.65,370.96 C121.58,368.39,113.35,363.76,108.47,357.34 C107.19,356.05,106.42,354.77,106.16,352.97 C105.13,349.37,106.16,345.52,109.5,341.15 C116.18,332.42,139.31,322.39,178.88,311.34 C200.21,305.43,225.9,305.95,255.71,312.37 C268.82,315.45,282.95,319.82,297.85,325.22 C313.01,330.87,327.66,337.3,341.28,344.23 Z " style="stroke:white;stroke-width:0;stroke-linecap:round;stroke-linejoin:round;fill:white;fill-rule:nonzero;"/>
<line x1="380.34" y1="377.9" x2="377.77" y2="381.24" style="stroke-width:5.1392;stroke-linecap:round;"/>
<path d="M377.77,381.24 L365.71,381.51 L353.44,381.76 L340.96,381.97 L328.27,382.14 L315.38,382.26 L302.28,382.32 L288.99,382.33 L275.5,382.26 C244.92,382.01,210.74,380.47,172.97,377.38 C161.92,376.61,148.82,374.3,133.65,370.96 C121.58,368.39,113.36,363.76,108.47,357.34 C107.19,356.05,106.42,354.77,106.16,352.97 C105.13,349.37,106.16,345.52,109.5,341.15 C116.18,332.42,139.31,322.39,178.88,311.34 C200.21,305.43,225.9,305.95,255.71,312.37 C268.82,315.46,282.95,319.82,297.85,325.22 C313.01,330.87,327.66,337.3,341.28,344.23 C343.08,345.26,345.13,346.29,346.93,347.32 C360.29,354.77,369.03,360.42,372.88,364.54 C378.28,370.45,380.85,374.81,380.34,377.9 " style="stroke-width:7.7088;stroke-linecap:round;stroke-linejoin:round;"/>
<path d="M424.63,344.23 L424.29,344.43 L423.95,344.62 L423.24,345.01 L422.53,345.39 L421.81,345.78 L421.08,346.16 L420.37,346.55 L419.67,346.93 L419.32,347.13 L418.98,347.32 C405.62,354.77,396.88,360.42,393.03,364.53 C387.63,370.44,385.06,374.81,385.58,377.9 L388.14,381.24 C420.01,382.01,454.18,382.52,490.42,382.26 C520.99,382.01,555.17,380.46,592.94,377.38 C603.99,376.61,617.1,374.3,632.26,370.96 C644.33,368.39,652.56,363.76,657.44,357.34 C658.72,356.05,659.49,354.77,659.75,352.97 C660.78,349.37,659.75,345.52,656.41,341.15 C649.73,332.42,626.6,322.39,587.03,311.34 C565.7,305.43,540.01,305.95,510.2,312.37 C497.1,315.45,482.96,319.82,468.06,325.22 C452.9,330.87,438.25,337.3,424.63,344.23 Z " style="stroke:white;stroke-width:0;stroke-linecap:round;stroke-linejoin:round;fill:white;fill-rule:nonzero;"/>
<line x1="385.58" y1="377.9" x2="388.14" y2="381.24" style="stroke-width:5.1392;stroke-linecap:round;"/>
<path d="M388.14,381.24 L400.2,381.51 L412.47,381.76 L424.95,381.97 L437.64,382.14 L450.53,382.26 L463.63,382.32 L476.92,382.33 L490.41,382.26 C520.99,382.01,555.17,380.47,592.94,377.38 C603.99,376.61,617.09,374.3,632.26,370.96 C644.33,368.39,652.56,363.76,657.44,357.34 C658.72,356.05,659.49,354.77,659.75,352.97 C660.78,349.37,659.75,345.52,656.41,341.15 C649.73,332.42,626.6,322.39,587.03,311.34 C565.7,305.43,540.01,305.95,510.2,312.37 C497.1,315.46,482.96,319.82,468.06,325.22 C452.9,330.87,438.25,337.3,424.63,344.23 C422.83,345.26,420.78,346.29,418.98,347.32 C405.62,354.77,396.88,360.42,393.03,364.54 C387.63,370.45,385.06,374.81,385.58,377.9 " style="stroke-width:7.7088;stroke-linecap:round;stroke-linejoin:round;"/>
<text transform="translate(5.5312,184.84) scale(1,-1) " style="font-family:'Courier',monospace;font-size:113.34;stroke:none;fill:black;">D</text>
<text transform="translate(73.638,184.84) scale(1,-1) " style="font-family:'Courier',monospace;font-size:113.34;stroke:none;fill:black;">r</text>
<text transform="translate(108.86,184.84) scale(1,-1) " style="font-family:'Courier',monospace;font-size:113.34;stroke:none;fill:black;">a</text>
<text transform="translate(164.01,184.84) scale(1,-1) " style="font-family:'Courier',monospace;font-size:113.34;stroke:none;fill:black;">g</text>
<text transform="translate(222.5,184.84) scale(1,-1) " style="font-family:'Courier',monospace;font-size:113.34;stroke:none;fill:black;">o</text>
<text transform="translate(289.4,184.84) scale(1,-1) " style="font-family:'Courier',monospace;font-size:113.34;stroke:none;fill:black;">n</text>
<text transform="translate(405.97,184.84) scale(1,-1) " style="font-family:'Courier',monospace;font-size:113.34;stroke:none;fill:black;">F</text>
<text transform="translate(455.05,184.84) scale(1,-1) " style="font-family:'Courier',monospace;font-size:113.34;stroke:none;fill:black;">l</text>
<text transform="translate(479.44,184.84) scale(1,-1) " style="font-family:'Courier',monospace;font-size:113.34;stroke:none;fill:black;">y</text>
<text transform="translate(544.37,184.84) scale(1,-1) " style="font-family:'Courier',monospace;font-size:113.34;stroke:none;fill:red;">B</text>
<text transform="translate(606.2,184.84) scale(1,-1) " style="font-family:'Courier',monospace;font-size:113.34;stroke:none;fill:red;">S</text>
<text transform="translate(662.97,184.84) scale(1,-1) " style="font-family:'Courier',monospace;font-size:113.34;stroke:none;fill:red;">D</text>
</g>
</svg>
