<?xml version="1.0" encoding="utf-8"?>
<!-- Generator: Adobe Illustrator 12.0.1, SVG Export Plug-In . SVG Version: 6.00 Build 51448)  -->
<!DOCTYPE svg PUBLIC "-//W3C//DTD SVG 1.1//EN" "http://www.w3.org/Graphics/SVG/1.1/DTD/svg11.dtd" [
	<!ENTITY ns_svg "http://www.w3.org/2000/svg">
	<!ENTITY ns_xlink "http://www.w3.org/1999/xlink">
]>
<svg  version="1.1" id="Layer_1" xmlns="&ns_svg;" xmlns:xlink="&ns_xlink;" width="600.94" height="345.364"
	 viewBox="0 0 600.94 345.364" overflow="visible" enable-background="new 0 0 600.94 345.364" xml:space="preserve">
<radialGradient id="XMLID_2_" cx="303.249" cy="102.4556" r="97.9836" gradientUnits="userSpaceOnUse">
	<stop  offset="0" style="stop-color:#FFFFFF"/>
	<stop  offset="0.0418" style="stop-color:#F7F9D8"/>
	<stop  offset="0.0906" style="stop-color:#EFF2B2"/>
	<stop  offset="0.1432" style="stop-color:#E8ED91"/>
	<stop  offset="0.1994" style="stop-color:#E2E976"/>
	<stop  offset="0.2607" style="stop-color:#DDE562"/>
	<stop  offset="0.3295" style="stop-color:#DAE353"/>
	<stop  offset="0.412" style="stop-color:#D9E14B"/>
	<stop  offset="0.5449" style="stop-color:#D8E148"/>
	<stop  offset="0.6791" style="stop-color:#D5E048"/>
	<stop  offset="0.7467" style="stop-color:#CFDD48"/>
	<stop  offset="0.7994" style="stop-color:#C2D946"/>
	<stop  offset="0.8444" style="stop-color:#B1D245"/>
	<stop  offset="0.8845" style="stop-color:#99CA44"/>
	<stop  offset="0.9206" style="stop-color:#7CC143"/>
	<stop  offset="0.927" style="stop-color:#75C043"/>
	<stop  offset="1" style="stop-color:#073800"/>
</radialGradient>
<circle fill="url(#XMLID_2_)" stroke="#000000" stroke-width="8.9432" cx="303.249" cy="102.456" r="97.984"/>
<path fill="#ED1C24" stroke="#000000" stroke-width="5.9621" d="M311.683,134.435c-0.379,22.241-6.969,207.954-12.206,207.948
	c-5.238,0-7.14-185.718-6.76-207.959c0.381-22.242,4.933-40.27,10.172-40.266C308.127,94.162,312.063,112.193,311.683,134.435z"/>
<path fill="#ED1C24" stroke="#000000" stroke-width="5.9621" d="M319.857,100.082c-0.381,22.241-8.331,40.268-17.758,40.262
	c-9.429-0.006-16.763-18.041-16.382-40.282c0.381-22.242,8.331-40.269,17.758-40.264C312.903,59.804,320.237,77.84,319.857,100.082z
	"/>
<path fill="#FCE92B" stroke="#000000" stroke-width="5.2006" d="M320.932,53.594c-0.271,7.88-8.131,14.335-17.556,14.417
	c-9.424,0.082-16.844-6.24-16.572-14.12c0.271-7.881,8.131-14.335,17.556-14.418C313.785,39.392,321.204,45.713,320.932,53.594z"/>
<path fill="#FFFFFF" stroke="#000000" stroke-width="5.9621" d="M300.99,91.285c0,0-101.548,13.956-134.413-49.564
	C137.051-15.334,300.813,84.19,300.813,84.19L300.99,91.285z"/>
<path fill="#FFFFFF" stroke="#000000" stroke-width="5.9621" d="M303.464,91.265c0,0,101.311,12.43,135.317-51.591
	c30.549-57.507-135.017,44.492-135.017,44.492L303.464,91.265z"/>
<path fill="#FFFFFF" stroke="#000000" stroke-width="5.9621" d="M299.896,109.183c0,0-80.308,59.484-138.896,18.468
	c-52.63-36.84,138.617-24.671,138.617-24.671L299.896,109.183z"/>
<path fill="#FFFFFF" stroke="#000000" stroke-width="5.9621" d="M301.987,109.183c0,0,80.307,59.484,138.895,18.468
	c52.632-36.84-138.617-24.671-138.617-24.671L301.987,109.183z"/>
<path fill="#9A090D" stroke="#000000" stroke-width="5.5926" d="M304.366,23.83c0,0-0.744,23.104-11.924,40.617
	c0,0,10.807,7.08,21.613-0.745C314.056,63.702,304.366,45.442,304.366,23.83z"/>
<polygon points="292.07,149.407 309.211,149.407 308.466,155.37 292.815,155.37 "/>
<polygon points="292.07,169.955 309.211,169.955 308.466,175.918 292.815,175.918 "/>
<polygon points="292.07,190.504 309.211,190.504 308.466,196.465 292.815,196.465 "/>
<polygon points="292.07,211.051 309.211,211.051 308.466,217.014 292.815,217.014 "/>
<polygon points="292.07,231.6 309.211,231.6 308.466,237.561 292.815,237.561 "/>
<polygon points="292.07,252.148 309.211,252.148 308.466,258.109 292.815,258.109 "/>
<polygon points="293.561,272.695 307.721,272.695 307.104,278.658 294.176,278.658 "/>
<polygon points="294.306,293.244 306.976,293.244 306.425,299.205 294.856,299.205 "/>
<g>
	<path d="M54.125,258.775c0,6.857-0.98,12.363-2.941,16.516s-4.268,7.518-6.924,10.092c-3.773,3.771-9.055,5.656-15.842,5.656
		h-0.799H0v-66.875h21.883c3.291,0,6.107,0.217,8.451,0.65s4.451,1.043,6.326,1.828s3.471,1.668,4.787,2.646s2.494,2.029,3.533,3.15
		c1.795,1.865,3.369,4.068,4.723,6.607c1.354,2.541,2.43,5.484,3.227,8.828S54.125,254.854,54.125,258.775z M38,257.906
		c0-5.438-0.818-9.676-2.453-12.717c-1.635-3.039-3.6-5.074-5.893-6.105c-2.293-1.029-4.631-1.545-7.012-1.545h-6.768v39.625h6.768
		c4.156,0,7.754-1.254,10.795-3.764S38,265.727,38,257.906z"/>
	<path d="M95.549,244.576L90.5,262.051c-2.076-2.508-4.178-3.762-6.303-3.762c-1.924,0-3.588,0.828-4.992,2.48
		c-1.406,1.654-2.754,4.713-4.043,9.174v21.096H61.537v-49.125h13.625v11.918c0.859-2.939,2.379-5.807,4.555-8.602
		c2.176-2.793,4.732-4.191,7.67-4.191c1.543,0,2.891,0.291,4.043,0.873C92.58,242.494,93.953,243.381,95.549,244.576z"/>
	<path d="M139.019,288.58c-1.996,1-3.84,1.805-5.531,2.416s-3.725,0.918-6.098,0.918c-2.248,0-3.814-0.508-4.697-1.521
		c-0.885-1.016-1.516-2.248-1.895-3.697c-1.473,1.516-3.107,2.764-4.908,3.746c-1.801,0.98-4.158,1.473-7.074,1.473
		c-2.816,0-5.092-0.619-6.828-1.855c-1.738-1.236-2.955-2.795-3.652-4.674s-1.045-3.816-1.045-5.809c0-3.02,0.602-5.516,1.807-7.492
		c1.203-1.977,2.82-3.59,4.85-4.844s4.719-2.555,8.066-3.904c1.902-0.77,3.342-1.355,4.318-1.758s1.705-0.715,2.188-0.941
		c0.48-0.225,0.988-0.514,1.521-0.867c0-2.375-0.381-4.236-1.143-5.584s-2.41-2.021-4.945-2.021c-2.994,0-5.771,0.836-8.334,2.508
		s-4.908,3.826-7.037,6.461v-13.342c1.695-1.555,3.531-2.824,5.506-3.812c1.973-0.988,4.035-1.725,6.188-2.211
		c2.152-0.484,4.328-0.729,6.531-0.729c5.594,0,9.803,1.377,12.625,4.127s4.234,6.539,4.234,11.363v18.965
		c0,1.803,0.133,3.146,0.398,4.031s0.752,1.326,1.463,1.326c0.859,0,2.023-0.465,3.492-1.398V288.58z M120.041,279.17v-11.631
		c-3.254,1.672-5.629,3.176-7.127,4.51c-1.5,1.336-2.248,3.145-2.248,5.426c0,1.641,0.373,2.895,1.123,3.762
		c0.75,0.869,1.619,1.303,2.611,1.303c0.939,0,1.873-0.328,2.801-0.986C118.128,280.896,119.076,280.102,120.041,279.17z"/>
	<path d="M183.201,252.441h-6.744c2.369,2.639,3.555,5.873,3.555,9.701c0,2.027-0.336,3.973-1.004,5.838
		c-0.67,1.867-1.654,3.523-2.955,4.971c-1.301,1.449-2.902,2.631-4.809,3.549s-4.084,1.473-6.533,1.664
		c-3.184,0.16-4.775,1.234-4.775,3.223c0,0.77,0.203,1.332,0.609,1.684c0.406,0.354,1.049,0.619,1.928,0.795
		c0.877,0.176,2.359,0.377,4.445,0.6c2.348,0.258,4.529,0.709,6.549,1.352c2.02,0.645,3.898,1.996,5.641,4.055
		c1.742,2.057,2.613,5.002,2.613,8.83c0,3.055-0.652,5.758-1.955,8.107c-1.303,2.348-3.408,4.182-6.318,5.502
		c-2.91,1.318-6.756,1.979-11.537,1.979c-6.883,0-11.936-1.178-15.162-3.527c-3.227-2.354-4.838-5.496-4.838-9.428
		c0-1.062,0.207-2.287,0.625-3.672c0.418-1.389,1.303-2.725,2.656-4.014s3.32-2.16,5.902-2.609
		c-0.912-0.416-1.697-1.225-2.354-2.426c-0.658-1.201-0.986-2.459-0.986-3.771c0-1.697,0.461-3.379,1.385-5.045
		c0.922-1.664,2.422-2.738,4.496-3.219c-2.883-0.967-5.375-2.787-7.475-5.463s-3.148-6.141-3.148-10.395
		c0-3.223,0.486-6.041,1.461-8.459c0.973-2.418,2.32-4.383,4.041-5.898s3.719-2.635,5.996-3.361c2.277-0.725,4.77-1.088,7.477-1.088
		h21.215V252.441z M170.859,300.191c0-2.148-0.906-3.535-2.719-4.16s-3.684-0.938-5.609-0.938c-3.168,0-5.457,0.424-6.863,1.275
		c-1.406,0.848-2.109,2.203-2.109,4.062c0,3.654,2.914,5.482,8.746,5.482c2.609,0,4.688-0.475,6.234-1.418
		C170.085,303.549,170.859,302.113,170.859,300.191z M168.136,260.762c0-2.482-0.668-4.473-2-5.973s-2.824-2.25-4.473-2.25
		c-2.107,0-3.764,0.904-4.969,2.709c-1.207,1.805-1.809,3.707-1.809,5.707c0,1.387,0.26,2.676,0.779,3.869s1.256,2.152,2.209,2.877
		c0.951,0.727,2.088,1.088,3.408,1.088c1.98,0,3.617-0.789,4.912-2.369C167.488,264.84,168.136,262.953,168.136,260.762z"/>
	<path d="M230.82,266.428c0,4.893-0.836,9.254-2.504,13.082s-4.164,6.854-7.488,9.074s-7.375,3.33-12.152,3.33
		s-8.828-1.109-12.152-3.33c-3.324-2.219-5.814-5.244-7.471-9.074c-1.656-3.828-2.482-8.189-2.482-13.082
		c0-3.699,0.461-7.062,1.383-10.088c0.922-3.023,2.326-5.703,4.209-8.035s4.203-4.127,6.959-5.383
		c2.754-1.254,5.939-1.883,9.555-1.883c3.641,0,6.857,0.637,9.65,1.906c2.793,1.271,5.105,3.049,6.938,5.334
		s3.217,4.957,4.152,8.014S230.82,262.729,230.82,266.428z M216.445,266.428c0-3.873-0.664-6.906-1.99-9.1
		c-1.326-2.191-3.252-3.289-5.779-3.289c-2.502,0-4.416,1.098-5.742,3.289c-1.326,2.193-1.988,5.227-1.988,9.1
		c0,3.844,0.668,6.885,2.008,9.125c1.34,2.242,3.246,3.361,5.723,3.361c2.527,0,4.453-1.111,5.779-3.338
		C215.781,273.352,216.445,270.303,216.445,266.428z"/>
	<path d="M279.23,291.039h-13.625v-25.512v-1.016c0-2.705-0.35-5.064-1.049-7.078c-0.699-2.012-2.232-3.02-4.598-3.02
		c-1.119,0-2.105,0.266-2.957,0.797s-1.615,1.217-2.289,2.055s-1.24,1.643-1.697,2.416s-0.928,1.594-1.41,2.463v28.895H237.98
		v-49.125h13.625v7.016c2.152-2.918,4.312-4.963,6.479-6.135c2.166-1.17,4.578-1.756,7.238-1.756
		c9.271,0,13.908,7.047,13.908,21.139V291.039z"/>
	<path d="M361.15,264.039h-21.83v27h-15.875v-66.875h37.705v13.375h-21.83v13h21.83V264.039z"/>
	<path d="M383.951,291.039h-13.625v-66.875h13.625V291.039z"/>
	<path d="M434.771,241.914l-26.271,71.5h-13.818l10.629-28.773l-15.299-42.727h14.691l7.859,24.375l8.922-24.375H434.771z"/>
	<path fill="#ED1C24" d="M489.104,272.07c0,5.762-1.553,10.363-4.656,13.805c-3.105,3.443-7.445,5.164-13.02,5.164h-30.449v-66.875
		h25.465c3.293,0,6.162,0.402,8.607,1.207s4.414,1.904,5.91,3.303c1.494,1.398,2.609,3.047,3.344,4.945s1.104,3.971,1.104,6.221
		c0,2.445-0.381,4.703-1.143,6.777s-1.709,3.779-2.838,5.113c-1.131,1.336-2.268,2.275-3.41,2.822
		c3.605,1.803,6.355,4.08,8.248,6.83C488.156,264.133,489.104,267.695,489.104,272.07z M470.521,243.414
		c0-3.211-0.836-5.348-2.506-6.408c-1.672-1.061-4.277-1.592-7.82-1.592h-3.342v16h3.418c3.617,0,6.23-0.529,7.838-1.59
		S470.521,246.627,470.521,243.414z M473.104,271.25c0-5.723-3.266-8.586-9.795-8.586h-6.455v17.125h6.455
		C469.838,279.789,473.104,276.943,473.104,271.25z"/>
	<path fill="#ED1C24" d="M535.982,271.543c0,4.195-0.842,7.824-2.525,10.889s-4.031,5.41-7.043,7.039s-6.467,2.443-10.363,2.443
		c-1.09,0-2.424-0.09-4.006-0.266c-1.582-0.18-3.684-0.67-6.303-1.479c-2.621-0.809-5.348-2.004-8.182-3.59v-16.447
		c2.656,2.09,5.27,3.826,7.838,5.209s5.32,2.072,8.256,2.072c2.707,0,4.461-0.568,5.258-1.707s1.195-2.205,1.195-3.201
		c0-1.797-0.688-3.312-2.061-4.547c-1.375-1.234-3.371-2.51-5.992-3.826c-2.877-1.541-5.4-3.219-7.568-5.033
		c-2.17-1.812-3.941-4.084-5.316-6.814s-2.062-5.957-2.062-9.682c0-3.596,0.695-6.848,2.088-9.754
		c1.391-2.906,3.518-5.225,6.377-6.959s6.354-2.602,10.479-2.602c2.936,0,5.65,0.363,8.143,1.086
		c2.492,0.725,4.549,1.537,6.17,2.438c1.619,0.9,2.732,1.607,3.34,2.121v15.676c-2.156-1.961-4.561-3.713-7.211-5.256
		s-5.484-2.314-8.504-2.314c-1.979,0-3.412,0.482-4.299,1.443c-0.889,0.963-1.332,2.15-1.332,3.561c0,1.316,0.445,2.455,1.336,3.418
		s2.48,2.133,4.771,3.512c4.053,2.406,7.295,4.572,9.727,6.498s4.338,4.146,5.719,6.664
		C535.291,264.654,535.982,267.789,535.982,271.543z"/>
	<path fill="#ED1C24" d="M600.94,258.775c0,6.857-0.98,12.363-2.941,16.516s-4.268,7.518-6.924,10.092
		c-3.773,3.771-9.055,5.656-15.842,5.656h-0.799h-27.619v-66.875h21.883c3.291,0,6.107,0.217,8.451,0.65s4.451,1.043,6.326,1.828
		s3.471,1.668,4.787,2.646s2.494,2.029,3.533,3.15c1.795,1.865,3.369,4.068,4.723,6.607c1.354,2.541,2.43,5.484,3.227,8.828
		S600.94,254.854,600.94,258.775z M584.815,257.906c0-5.438-0.818-9.676-2.453-12.717c-1.635-3.039-3.6-5.074-5.893-6.105
		c-2.293-1.029-4.631-1.545-7.012-1.545h-6.768v39.625h6.768c4.156,0,7.754-1.254,10.795-3.764S584.815,265.727,584.815,257.906z"/>
</g>
</svg>
